<svg width="45" height="40" viewBox="0 0 45 40" fill="none" xmlns="http://www.w3.org/2000/svg">
<path d="M1.63098 3.26122H6.30711L12.9658 27.3366C13.0612 27.6811 13.2672 27.9848 13.552 28.201C13.8369 28.4171 14.1848 28.5338 14.5424 28.5329H35.0089C35.3263 28.5325 35.6367 28.4397 35.9023 28.2659C36.1678 28.0921 36.377 27.8447 36.5043 27.5541L43.9521 10.4346C44.0585 10.1852 44.1016 9.91337 44.0778 9.64326C44.0541 9.37314 43.964 9.11304 43.8158 8.88599C43.6683 8.66022 43.4667 8.47485 43.2294 8.34672C42.9921 8.21858 42.7265 8.15174 42.4567 8.15226H19.8422C19.4096 8.15226 18.9947 8.32405 18.6889 8.62985C18.383 8.93565 18.2112 9.3504 18.2112 9.78286C18.2112 10.2153 18.383 10.6301 18.6889 10.9359C18.9947 11.2417 19.4096 11.4135 19.8422 11.4135H39.9547L33.9211 25.2717H15.7651L9.10636 1.19634C9.01123 0.851637 8.80535 0.547777 8.52045 0.33159C8.23555 0.115403 7.88744 -0.00110938 7.52977 7.96196e-06H1.63098C1.19842 7.96196e-06 0.78357 0.171803 0.477702 0.477601C0.171835 0.783398 0 1.19815 0 1.63061C0 2.06307 0.171835 2.47783 0.477702 2.78362C0.78357 3.08942 1.19842 3.26122 1.63098 3.26122Z" fill="#969696"/>
<path d="M12.993 40C13.7242 40 14.439 39.7832 15.047 39.3771C15.655 38.9709 16.1288 38.3937 16.4086 37.7183C16.6885 37.0429 16.7617 36.2997 16.619 35.5827C16.4764 34.8657 16.1243 34.2071 15.6072 33.6901C15.0902 33.1732 14.4314 32.8212 13.7142 32.6786C12.9971 32.536 12.2537 32.6091 11.5782 32.8889C10.9026 33.1686 10.3252 33.6424 9.91897 34.2503C9.51273 34.8581 9.2959 35.5727 9.2959 36.3038C9.29671 37.2838 9.68648 38.2235 10.3796 38.9165C11.0728 39.6095 12.0127 39.9992 12.993 40Z" fill="#969696"/>
<path d="M36.0952 39.9999H36.3664C37.3699 39.9644 38.3193 39.5363 39.0102 38.8078C39.7012 38.0793 40.0784 37.1087 40.0606 36.105C40.0428 35.1012 39.6315 34.1446 38.9152 33.441C38.1989 32.7375 37.235 32.3433 36.2308 32.3433C35.2267 32.3433 34.2627 32.7375 33.5464 33.441C32.8301 34.1446 32.4188 35.1012 32.401 36.105C32.3832 37.1087 32.7604 38.0793 33.4514 38.8078C34.1423 39.5363 35.0917 39.9644 36.0952 39.9999Z" fill="#969696"/>
</svg>
