<svg width="45" height="40" viewBox="0 0 45 40" fill="none" xmlns="http://www.w3.org/2000/svg">
<path d="M32.1605 0L32.1596 3.2079C29.5799 3.20829 27.1618 4.81548 25.1667 7.85575C24.5989 8.72096 23.646 9.26242 22.6061 9.31065C22.5554 9.313 22.505 9.31416 22.4546 9.31416C21.4697 9.31416 20.5349 8.86863 19.9196 8.09917C17.4488 5.00898 14.6767 3.3756 11.9032 3.3756C9.71492 3.3756 7.61374 4.40926 5.9867 6.28617C4.21246 8.33291 3.23534 11.1051 3.23534 14.092C3.23534 16.7106 3.97332 18.7868 5.62816 20.8239C7.2977 22.8791 9.72108 24.7064 12.5271 26.8223C15.5507 29.1021 18.8895 31.6195 22.0494 35.0048C25.0587 31.771 28.3664 29.2909 31.3655 27.0421C34.1253 24.9727 36.7321 23.0181 38.4893 20.8981C40.239 18.787 41.0193 16.6879 41.0193 14.092C41.0193 11.1344 39.9924 8.33787 38.1278 6.21754C36.4458 4.30488 34.2708 3.2079 32.1605 3.2079V0ZM32.1591 3.05929e-06C38.4496 -0.000930026 44.2547 6.26035 44.2547 14.092C44.2547 26.1165 30.5459 28.6337 22.0692 40C12.8808 28.0864 0 26.1165 0 14.092C0 6.26622 5.45394 0.167695 11.9032 0.167695C15.3634 0.167695 19.1091 1.92185 22.4549 6.10626C25.2834 1.79593 28.7913 0.000501724 32.1591 3.05929e-06Z" fill="#969696"/>
</svg>
