<svg width="35" height="42" viewBox="0 0 35 42" fill="none" xmlns="http://www.w3.org/2000/svg">
<path d="M17.6029 22.5531H17.8635C18.9435 22.576 20.0157 22.3622 21.0071 21.9263C21.9986 21.4903 22.8859 20.8425 23.6087 20.0267C26.7465 16.4335 26.2254 10.2725 26.1678 9.68436C25.9648 5.27061 23.9103 3.15841 22.2148 2.17313C20.8756 1.41137 19.3679 1.00772 17.8331 1.00003H17.6953C16.1629 0.996026 14.6544 1.38636 13.3105 2.13464C11.5985 3.11993 9.51216 5.23212 9.30914 9.67821C9.25156 10.2663 8.73036 16.4274 11.8682 20.0206C12.5881 20.8376 13.4732 21.4868 14.463 21.9239C15.4528 22.361 16.5239 22.5756 17.6029 22.5531ZM11.4818 9.8922C11.4818 9.86756 11.4894 9.84293 11.4894 9.826C11.7575 3.88814 15.9059 3.25078 17.6831 3.25078H17.7816C19.9816 3.30005 23.7224 4.21143 23.9754 9.826C23.9734 9.84836 23.976 9.8709 23.983 9.8922C23.9906 9.9507 24.5618 15.5884 21.9694 18.5457C21.4412 19.1365 20.7912 19.6017 20.0657 19.908C19.3403 20.2142 18.5573 20.3542 17.7725 20.3177H17.6907C16.9071 20.3542 16.1252 20.2143 15.401 19.9079C14.6768 19.6016 14.0281 19.1365 13.5014 18.5457C10.9227 15.5914 11.4757 9.92914 11.4848 9.88604L11.4818 9.8922Z" fill="#969696" stroke="#969696" stroke-width="0.5"/>
<path d="M34.482 32.7647V32.74C34.482 32.6738 34.4745 32.6076 34.4745 32.5322C34.426 30.8926 34.3229 27.0593 30.7821 25.8338L30.7003 25.8092C28.2963 25.1369 26.0128 24.0804 23.9353 22.6793C23.6965 22.5091 23.4008 22.4422 23.1134 22.4935C22.826 22.5447 22.5704 22.7099 22.4028 22.9526C22.2352 23.1954 22.1694 23.4958 22.2199 23.7878C22.2703 24.0799 22.4328 24.3396 22.6717 24.5099C24.9519 26.0621 27.4648 27.2282 30.1125 27.9629C32.0109 28.6495 32.223 30.7125 32.2806 32.5999C32.2789 32.6688 32.2814 32.7377 32.2882 32.8062C32.3029 33.6625 32.2457 34.5185 32.1169 35.3649C27.6804 37.6939 22.7418 38.8606 17.7491 38.7595C12.7539 38.852 7.81418 37.6824 3.37375 35.3556C3.241 34.5097 3.18369 33.6534 3.20254 32.797C3.20254 32.7308 3.21012 32.6646 3.21012 32.5907C3.26769 30.7033 3.47981 28.6403 5.37825 27.9537C8.02447 27.215 10.5367 26.0491 12.819 24.5006C13.0579 24.3303 13.2204 24.0706 13.2708 23.7786C13.3213 23.4866 13.2555 23.1861 13.0879 22.9434C12.9203 22.7007 12.6647 22.5355 12.3773 22.4842C12.0899 22.433 11.7942 22.4999 11.5554 22.6701C9.48012 24.0752 7.19595 25.132 4.79038 25.7999C4.75705 25.8076 4.73281 25.8169 4.70856 25.8246C1.17229 27.0562 1.07229 30.8926 1.01623 32.5245C1.01792 32.5934 1.01539 32.6623 1.00866 32.7308V32.7554C0.962299 34.02 1.10222 35.2846 1.4238 36.5072C1.50542 36.7235 1.6544 36.9068 1.84803 37.0291C6.70265 39.7819 12.1996 41.1495 17.7567 40.9871C23.3133 41.1448 28.8091 39.7775 33.6654 37.0291C33.8569 36.9043 34.0052 36.7219 34.0896 36.5072C34.3941 35.2848 34.5262 34.0248 34.482 32.7647Z" fill="#969696" stroke="#969696" stroke-width="0.5"/>
</svg>
