<svg width="52" height="40" viewBox="0 0 52 40" fill="none" xmlns="http://www.w3.org/2000/svg">
<path d="M25.5814 14.9998C24.0634 14.9998 22.5795 15.4397 21.3173 16.2639C20.0552 17.0881 19.0714 18.2595 18.4905 19.6301C17.9096 21.0007 17.7576 22.5089 18.0537 23.9639C18.3499 25.4189 19.0809 26.7554 20.1543 27.8044C21.2276 28.8534 22.5952 29.5678 24.0841 29.8572C25.5729 30.1466 27.1161 29.9981 28.5185 29.4303C29.921 28.8626 31.1197 27.9012 31.963 26.6677C32.8064 25.4342 33.2565 23.9841 33.2565 22.5005C33.2565 21.5155 33.058 20.5402 32.6723 19.6301C32.2866 18.7201 31.7212 17.8932 31.0085 17.1967C30.2958 16.5002 29.4497 15.9477 28.5185 15.5707C27.5874 15.1938 26.5893 14.9998 25.5814 14.9998ZM46.0472 7.50076H39.9082C39.4664 7.48072 39.0401 7.33547 38.6813 7.08271C38.3226 6.82994 38.0468 6.48061 37.8878 6.0773L36.2969 1.42345C36.1379 1.02079 35.8626 0.671929 35.5046 0.419238C35.1465 0.166547 34.7211 0.0209029 34.28 0H16.8846C16.4428 0.0200317 16.0165 0.165289 15.6577 0.41805C15.299 0.670811 15.0232 1.02015 14.8642 1.42345L13.2733 6.0773C13.1137 6.48016 12.8378 6.82901 12.4791 7.08143C12.1204 7.33384 11.6944 7.47892 11.2528 7.49903H5.11557C3.75939 7.50177 2.45959 8.0296 1.50079 8.96694C0.54199 9.90428 0.00233535 11.1747 0 12.5001L0 35.0006C0.00280236 36.3257 0.542663 37.5957 1.50141 38.5327C2.46016 39.4697 3.7597 39.9973 5.11557 40H46.0472C47.4031 39.9973 48.7026 39.4697 49.6614 38.5327C50.6201 37.5957 51.16 36.3257 51.1628 35.0006V12.5001C51.16 11.175 50.6201 9.90503 49.6614 8.96806C48.7026 8.03109 47.4031 7.50349 46.0472 7.50076ZM25.5814 35.0006C23.0516 35.0006 20.5787 34.2675 18.4753 32.894C16.3718 31.5205 14.7324 29.5682 13.7643 27.2841C12.7962 25 12.5429 22.4867 13.0365 20.0619C13.53 17.6371 14.7482 15.4098 16.537 13.6616C18.3258 11.9135 20.6049 10.7229 23.0861 10.2406C25.5672 9.7583 28.139 10.0058 30.4762 10.9519C32.8134 11.8981 34.811 13.5002 36.2165 15.5559C37.6219 17.6115 38.3721 20.0283 38.3721 22.5005C38.3721 25.8158 37.0245 28.9952 34.6258 31.3395C32.2271 33.6837 28.9737 35.0006 25.5814 35.0006ZM44.2566 15.9983C43.9024 15.9983 43.5562 15.8956 43.2618 15.7034C42.9673 15.5111 42.7378 15.2378 42.6023 14.918C42.4667 14.5982 42.4313 14.2464 42.5004 13.9069C42.5695 13.5675 42.74 13.2557 42.9904 13.0109C43.2409 12.7662 43.5599 12.5995 43.9073 12.532C44.2546 12.4645 44.6146 12.4991 44.9418 12.6316C45.269 12.764 45.5487 12.9883 45.7454 13.2761C45.9422 13.5639 46.0472 13.9022 46.0472 14.2483C46.0468 14.7121 45.8579 15.1568 45.5221 15.4846C45.1864 15.8124 44.7312 15.9965 44.2566 15.9965V15.9983Z" fill="white"/>
</svg>
