<svg width="39" height="40" viewBox="0 0 39 40" fill="none" xmlns="http://www.w3.org/2000/svg">
<path d="M38.3323 6.24584C38.3307 5.00911 37.9771 3.80064 37.3163 2.77319C36.6555 1.74573 35.7171 0.945429 34.6197 0.473426C33.5224 0.00142426 32.3153 -0.121084 31.1511 0.121386C29.9869 0.363856 28.9179 0.960419 28.0791 1.83567L3.91679 27.1092C3.12542 27.931 2.5288 28.9336 2.17427 30.0375V30.0957L0 40L9.52329 37.7804L9.59473 37.7545C10.6603 37.3893 11.6292 36.7699 12.4244 35.9457L36.5774 10.6819C37.1361 10.1021 37.5789 9.41268 37.8801 8.65346C38.1814 7.89423 38.3351 7.0803 38.3323 6.25878V6.24584ZM5.28036 35.5704L4.27088 34.5188L5.00081 31.1764L8.49517 34.8197L5.28036 35.5704ZM34.4528 8.46549L10.9925 33.0078L6.74333 28.575L22.8143 11.7658L25.2619 14.3155L27.3802 12.1088L24.9295 9.5559L27.2094 7.17123L29.6663 9.73062L31.7847 7.52392L29.3246 4.96129L30.2037 4.04237C30.48 3.73905 30.8117 3.49642 31.1795 3.3288C31.5472 3.16117 31.9434 3.07195 32.3448 3.06639C32.7462 3.06082 33.1445 3.13903 33.5164 3.2964C33.8883 3.45377 34.2262 3.68711 34.5101 3.98267C34.794 4.27823 35.0183 4.63002 35.1696 5.01729C35.3209 5.40457 35.3963 5.81949 35.3913 6.2376C35.3862 6.6557 35.3009 7.06852 35.1402 7.45171C34.9796 7.8349 34.7469 8.1807 34.4559 8.46872L34.4528 8.46549ZM15.7665 36.8453H38.3292V39.9676H12.7816L15.7665 36.8453Z" fill="#666666"/>
</svg>
