<svg width="45" height="40" viewBox="0 0 45 40" fill="none" xmlns="http://www.w3.org/2000/svg">
<path d="M13.8334 10.7519L16.4734 8.17901L8.23669 0.154419L0 8.18187L2.63996 10.7548L6.37111 7.1184V32.8846L2.63996 29.2453L0 31.8182L8.23669 39.8457L16.4704 31.8182L13.8305 29.2453L10.1023 32.8817V7.11554L13.8334 10.7519Z" fill="#666666"/>
<path d="M44.6158 0H20.3633V3.63637H44.6158V0Z" fill="#666666"/>
<path d="M44.6158 18.1818H20.3633V21.8181H44.6158V18.1818Z" fill="#666666"/>
<path d="M37.1535 9.09082H20.3633V12.7272H37.1535V9.09082Z" fill="#666666"/>
<path d="M37.1535 27.2728H20.3633V30.9092H37.1535V27.2728Z" fill="#666666"/>
<path d="M44.6158 36.3636H20.3633V40H44.6158V36.3636Z" fill="#666666"/>
</svg>
